HIERARCHY
ROOT Hips
{
	OFFSET -0.179506 -22.333345 2.821913
	CHANNELS 6 Xposition Yposition Zposition Zrotation Yrotation Xrotation 
	JOINT LeftUpLeg
	{
		OFFSET 6.951974 -9.140623 -0.681533
		CHANNELS 3 Zrotation Yrotation Xrotation
		JOINT LeftLeg
		{
			OFFSET 3.427654 -37.519855 -0.449580
			CHANNELS 3 Zrotation Yrotation Xrotation
			JOINT LeftFoot
			{
				OFFSET -1.359570 -39.796059 -4.369333
				CHANNELS 3 Zrotation Yrotation Xrotation
				JOINT LeftToe
				{
					OFFSET 2.635814 -5.579078 11.928840
					CHANNELS 3 Zrotation Yrotation Xrotation
					End Site
					{
						OFFSET 0.000000 0.000000 0.000000
					}
				}
			}
		}
	}
	JOINT RightUpLeg
	{
		OFFSET -6.767048 -9.052170 -0.431982
		CHANNELS 3 Zrotation Yrotation Xrotation
		JOINT RightLeg
		{
			OFFSET -3.829005 -38.256897 -0.885003
			CHANNELS 3 Zrotation Yrotation Xrotation
			JOINT RightFoot
			{
				OFFSET 1.577377 -39.841461 -4.231180
				CHANNELS 3 Zrotation Yrotation Xrotation
				JOINT RightToe
				{
					OFFSET -2.537174 -4.814398 12.334795
					CHANNELS 3 Zrotation Yrotation Xrotation
					End Site
					{
						OFFSET 0.000000 0.000000 0.000000
					}
				}
			}
		}
	}
	JOINT Spine
	{
		OFFSET -0.253288 10.896323 -2.669631
		CHANNELS 3 Zrotation Yrotation Xrotation
		JOINT Spine1
		{
			OFFSET 0.548704 13.518043 0.109247
			CHANNELS 3 Zrotation Yrotation Xrotation
			JOINT Spine2
			{
				OFFSET 0.145701 5.292222 2.542457
				CHANNELS 3 Zrotation Yrotation Xrotation
				JOINT Neck
				{
					OFFSET -0.277840 21.387037 -4.285703
					CHANNELS 3 Zrotation Yrotation Xrotation
					JOINT Head
					{
						OFFSET 0.515184 6.496960 5.134897
						CHANNELS 3 Zrotation Yrotation Xrotation
						End Site
						{
							OFFSET 0.000000 0.000000 0.000000
						}
					}
				}
				JOINT LeftShoulder
				{
					OFFSET 7.884473 12.174932 -3.408961
					CHANNELS 3 Zrotation Yrotation Xrotation
					JOINT LeftArm
					{
						OFFSET 9.097692 3.046888 -0.886815
						CHANNELS 3 Zrotation Yrotation Xrotation
						JOINT LeftForeArm
						{
							OFFSET 25.961220 -1.277207 -2.745643
							CHANNELS 3 Zrotation Yrotation Xrotation
							JOINT LeftHand
							{
								OFFSET 24.923361 0.898606 -0.117091
								CHANNELS 3 Zrotation Yrotation Xrotation
								End Site
								{
									OFFSET 0.000000 0.000000 0.000000
								}
							}
						}
					}
				}
				JOINT RightShoulder
				{
					OFFSET -8.175920 11.883285 -3.861528
					CHANNELS 3 Zrotation Yrotation Xrotation
					JOINT RightArm
					{
						OFFSET -9.601238 3.255117 -0.914307
						CHANNELS 3 Zrotation Yrotation Xrotation
						JOINT RightForeArm
						{
							OFFSET -25.374195 -1.332924 -2.140099
							CHANNELS 3 Zrotation Yrotation Xrotation
							JOINT RightHand
							{
								OFFSET -25.529810 0.777228 -0.555919
								CHANNELS 3 Zrotation Yrotation Xrotation
								End Site
								{
									OFFSET 0.000000 0.000000 0.000000
								}
							}
						}
					}
				}
			}
		}
	}
}
MOTION
Frames: 18
Frame Time: 0.033333
-37.907116 33.410530 33.887878 179.592941 3.799625 171.823264 -2.950714 -13.590939 0.531381 5.613420 -27.630909 -1.383723 5.212243 9.497913 -16.285765 nan nan nan 2.071666 5.069036 -4.163178 2.639919 11.111312 2.081345 16.161746 5.471157 -27.621474 nan nan nan 1.134177 3.695412 11.171127 0.460915 -0.533220 -6.977595 2.323218 1.133358 1.988490 -0.797503 5.212940 -19.718815 0.581729 -8.491151 -13.682757 2.527497 -6.783755 -11.480024 -39.576093 -23.704562 13.476575 54.456143 -77.695535 -28.467596 60.123470 -29.962652 -12.374610 -5.247182 7.568560 -13.495789 31.643050 19.720014 12.367950 -17.992918 78.588721 8.043824 -48.048618 22.619258 3.254015 
-37.880062 33.447456 33.387718 179.392333 3.396976 171.672195 -3.326567 -13.747395 1.147422 5.934562 -28.545926 -1.820885 5.255328 10.056446 -16.327489 nan nan nan 2.170170 5.185642 -3.835238 2.432369 10.874418 2.709351 15.271546 5.194186 -28.594771 nan nan nan 0.935552 3.625208 11.035944 0.335660 -0.535543 -6.898153 2.246905 1.143101 2.037445 -0.690721 5.193558 -20.251585 0.695382 -8.680462 -13.748047 2.530662 -6.507798 -11.687161 -39.443754 -23.524230 13.576888 55.311699 -78.474099 -29.153117 60.227849 -29.654309 -11.990830 -5.297104 7.040450 -13.740332 31.980509 18.956487 12.671581 -18.579529 79.660943 7.824991 -48.066941 22.408568 3.305549 
-37.863270 33.449837 32.825596 179.198608 2.852765 171.582418 -3.646455 -13.993763 1.561222 6.156190 -28.356738 -1.993466 5.486971 11.345481 -14.740356 nan nan nan 2.069887 5.435444 -3.248766 2.297035 10.320585 2.586485 14.302718 4.415184 -29.171856 nan nan nan 0.680233 3.432780 10.561091 0.258342 -0.555011 -6.448458 2.241940 1.033005 2.150000 -0.740722 4.822467 -21.033906 0.766935 -8.470232 -13.743068 2.481439 -6.062834 -11.823201 -39.175064 -23.701185 13.465873 55.844335 -79.457042 -30.025314 60.008817 -29.528849 -12.226925 -5.501861 6.500987 -13.827396 32.178536 18.562274 13.002277 -20.168796 80.667658 6.442701 -46.781703 22.998495 4.542633 
-37.827747 33.505032 32.234894 179.072565 2.274483 171.547828 -3.757599 -13.959254 1.996210 6.288654 -28.573587 -2.364465 5.344702 10.139794 -14.833855 nan nan nan 2.082774 5.596760 -2.510268 2.029147 10.102105 2.106411 13.806758 3.747666 -29.733604 nan nan nan 0.480473 3.326736 9.990235 0.169145 -0.631732 -6.387151 2.241326 0.781550 2.226662 -0.627587 4.523135 -20.725685 0.882137 -8.191701 -14.180187 2.458706 -5.931021 -11.501308 -39.178522 -23.548914 13.309094 57.040396 -80.056814 -31.383339 58.427702 -30.116224 -12.544153 -5.554938 6.290969 -13.704756 32.446216 17.938991 13.353868 -20.619512 81.407921 6.224402 -44.654861 23.369023 5.117412 
-37.848022 33.561089 31.676016 178.814886 1.707248 171.531337 -4.272261 -14.212601 2.289146 6.447566 -29.962953 -2.240175 5.592871 10.271356 -14.898019 nan nan nan 1.871539 5.561350 -1.860057 1.922285 10.546659 1.692671 13.072702 2.886071 -30.363888 nan nan nan 0.300248 3.275883 9.457963 0.066937 -0.833826 -6.246425 2.166437 0.573742 2.252891 -0.618771 4.171870 -20.635460 0.977149 -7.896629 -14.539343 2.484095 -5.742731 -11.295138 -39.421038 -23.145254 13.330860 59.232545 -80.433950 -33.359673 57.939510 -29.824593 -12.448791 -5.706127 5.973920 -13.838181 32.834611 17.352905 13.714678 -19.228601 82.174289 7.974249 -42.257575 22.829946 5.391966 
-37.876564 33.604668 31.158758 178.684090 1.240185 171.596422 -4.489049 -14.475851 2.427982 6.300519 -30.867754 -1.861919 5.599536 10.093772 -15.642817 nan nan nan 1.815158 5.500825 -1.384180 1.642146 10.899508 1.421375 12.512505 2.374171 -30.992637 nan nan nan 0.352764 3.204142 9.094169 -0.014005 -1.086447 -6.461558 2.004261 0.538641 2.363013 -0.632159 4.010717 -20.649713 1.006674 -7.811710 -14.799246 2.333219 -5.501588 -11.127967 -39.651256 -22.770386 13.407385 62.123015 -80.818895 -35.972377 57.600516 -29.616524 -12.556541 -5.745758 5.612776 -13.820142 33.097991 16.815117 13.916032 -18.224988 83.011118 9.404524 -41.214491 22.432967 5.417271 
-37.909264 33.637665 30.666590 178.604288 0.907955 171.781711 -4.543501 -14.656226 2.481738 6.149056 -31.440187 -1.680611 5.588010 9.892379 -15.957196 nan nan nan 1.790060 5.422836 -1.132781 1.420298 11.385897 1.307334 11.669831 1.924898 -31.568372 nan nan nan 0.438668 3.174388 8.763143 -0.065342 -1.263296 -6.885426 1.863733 0.547186 2.600608 -0.673010 3.972211 -20.999808 0.995651 -7.859893 -14.944306 2.136435 -5.176881 -11.004362 -39.769296 -22.438208 13.527152 65.465164 -81.309667 -39.165006 58.177420 -29.465200 -12.730644 -5.737921 5.174670 -13.717410 33.328151 16.317305 14.095139 -19.795776 83.963899 7.973507 -41.971143 22.167053 4.824198 
-37.911736 33.672279 30.148924 178.594276 0.650156 171.921026 -4.442735 -14.576485 2.668435 5.985326 -31.800962 -1.746084 5.256918 9.750433 -16.848429 nan nan nan 1.941882 5.290627 -0.812814 1.093529 12.171198 1.221261 10.470410 1.395489 -32.059843 nan nan nan 0.528555 3.257465 8.429898 -0.106763 -1.399560 -7.295185 1.799089 0.489431 2.938193 -0.737078 4.168341 -21.456938 0.951366 -8.224470 -15.149216 2.074690 -4.758499 -11.110508 -40.028517 -22.239310 13.795160 67.237723 -81.940246 -40.844375 63.101906 -28.652771 -13.362510 -5.698978 4.511022 -13.720912 33.786871 16.193533 14.385655 -24.798352 84.606530 2.246894 -50.892731 21.492992 2.416353 
-37.915661 33.724430 29.599993 178.667563 0.308338 171.983323 -4.229856 -14.353141 2.966243 5.787294 -31.689587 -1.887742 5.036080 9.120625 -17.480807 nan nan nan 2.273820 5.211421 -0.305178 0.555879 12.877974 0.985466 9.414733 0.791874 -32.429174 nan nan nan 0.728595 3.351164 7.987394 -0.184950 -1.536151 -7.406496 1.678113 0.320497 3.128790 -0.737030 4.311180 -21.555372 1.035521 -8.527858 -15.653760 2.076976 -4.319528 -11.212037 -40.374106 -22.210738 14.007512 67.997421 -82.597552 -41.131149 69.775113 -27.085566 -14.422904 -5.681133 3.828397 -13.721573 34.650627 16.160642 14.620726 -38.646324 84.868447 -12.820796 -63.453620 19.505696 -2.463878 
-37.952370 33.806675 29.094872 178.581946 0.021563 172.066116 -4.516123 -14.688090 3.190708 5.794842 -32.397985 -1.729912 5.375059 9.664693 -17.454626 nan nan nan 2.327898 5.219077 0.097348 0.178162 13.482453 0.852728 8.711457 0.125865 -32.780227 nan nan nan 0.661634 3.399201 7.453713 -0.158252 -1.614731 -7.199423 1.648507 0.279732 3.175641 -0.848894 4.010320 -21.940563 1.181144 -8.441885 -16.078492 1.854605 -4.209287 -11.054306 -40.268334 -21.860822 13.934080 72.890044 -83.164218 -45.554386 69.521332 -26.476556 -14.472721 -5.504952 3.653053 -13.392597 34.538621 15.462316 14.418311 -48.168943 85.699369 -21.573874 -62.742825 19.212856 -2.300026 
-37.966484 33.880219 28.602579 178.545402 -0.170018 172.264779 -4.558034 -15.143585 3.379706 5.730467 -33.012255 -1.777540 5.779389 10.149801 -17.241166 nan nan nan 2.370916 5.484946 0.343618 -0.009103 14.007898 0.762256 8.002105 -0.687609 -32.918928 nan nan nan 0.606524 3.361912 6.844186 -0.104996 -1.686574 -7.183110 1.646377 0.268165 3.387511 -1.019311 3.749870 -22.369319 1.331612 -8.290848 -16.502471 1.762659 -4.011147 -10.856077 -40.140530 -21.444125 13.752481 78.773139 -83.792312 -50.984180 69.186785 -25.988695 -14.370482 -5.442462 3.537084 -13.018864 34.437885 14.914009 14.147054 -61.072739 86.395301 -33.942182 -61.934517 18.916275 -2.387131 
-37.977104 33.943386 28.125862 178.610959 -0.267348 172.515836 -4.376575 -15.410900 3.436289 5.591445 -32.598582 -1.688403 6.042294 9.808649 -17.348048 nan nan nan 2.492699 5.894406 0.473161 -0.109920 14.331279 0.790072 7.564152 -1.191237 -33.106277 nan nan nan 0.684242 3.289198 6.129645 -0.040356 -1.673184 -7.169119 1.586442 0.220031 3.624544 -1.041065 3.595481 -22.672018 1.346882 -8.206245 -16.902210 1.614996 -3.551298 -10.755227 -40.153745 -21.266967 13.777950 84.616961 -84.309907 -56.717882 68.886543 -25.869401 -14.386000 -5.342761 3.230396 -12.748255 34.356939 14.736306 14.270455 -74.113913 86.760510 -47.004709 -61.924115 18.735122 -2.694985 
-37.985027 34.009445 27.670961 178.574944 -0.140257 172.770815 -4.359604 -15.734612 3.504726 5.513570 -32.110880 -1.570365 6.327088 9.722191 -17.506146 nan nan nan 2.550164 6.264967 0.419860 -0.169286 14.537539 1.078771 7.248113 -1.545718 -33.425257 nan nan nan 0.623549 3.221835 5.321182 0.040927 -1.511976 -6.727604 1.557698 0.186195 3.565839 -0.997163 3.315198 -23.176488 1.279212 -7.896514 -17.001940 1.519438 -3.147564 -10.654238 -40.262490 -20.896928 13.822087 92.959310 -84.444982 -65.054751 64.217605 -26.531813 -14.354571 -5.334091 3.046797 -12.734549 34.173210 14.386314 14.523542 -77.656563 87.726320 -49.282137 -53.150060 19.971359 0.559924 
-37.992729 34.073269 27.200697 178.517829 0.063010 172.879978 -4.416371 -15.932531 3.776308 5.541293 -32.043998 -1.568605 6.305839 9.727299 -17.829764 nan nan nan 2.599002 6.560684 0.450434 -0.180375 14.446245 1.445303 7.279965 -1.604010 -33.719870 nan nan nan 0.548860 3.227501 4.927896 0.099881 -1.386822 -6.487992 1.511093 0.263393 3.382252 -0.868309 3.586912 -23.588124 1.092743 -8.024888 -17.072489 1.706693 -2.751089 -10.411246 -40.547240 -20.685148 13.946931 99.817597 -84.450637 -71.714655 63.709931 -26.822476 -14.792421 -5.339948 2.590006 -12.776873 34.350757 14.180091 14.823722 -93.522377 87.911380 -64.900115 -52.218373 20.089902 0.269737 
-38.017357 34.142441 26.735565 178.483840 0.174149 172.901249 -4.609749 -16.178134 4.078597 5.613533 -32.761612 -1.407230 6.252466 10.272348 -18.204198 nan nan nan 2.576795 6.700974 0.597020 -0.013385 14.454496 1.709979 7.511327 -1.602289 -33.879466 nan nan nan 0.535966 3.293976 4.932359 0.130646 -1.355864 -6.810381 1.464245 0.317579 3.487653 -0.730376 4.090009 -24.021839 0.831500 -8.396500 -17.184537 1.815929 -2.239961 -10.287244 -40.729423 -20.671494 14.207638 105.361759 -84.671935 -76.919060 69.502556 -25.929537 -15.482307 -5.276894 1.863848 -12.765868 34.685566 14.317933 15.164272 -109.896006 87.094925 -82.406514 -62.121864 18.638825 -3.776629 
-38.051552 34.226864 26.292778 178.461800 0.280927 172.941891 -4.811662 -16.676181 4.353289 5.599591 -33.221795 -1.222940 6.400416 10.749070 -18.421678 nan nan nan 2.535837 6.791942 0.749234 0.230677 14.613911 1.889423 7.652412 -1.747124 -34.002210 nan nan nan 0.546022 3.320072 4.792243 0.168210 -1.327287 -6.935652 1.488771 0.311876 3.517330 -0.701330 3.936825 -24.422402 0.738517 -8.165847 -17.253101 1.687681 -2.020831 -10.242631 -40.597470 -20.126220 14.246726 113.914404 -84.698728 -85.472892 69.717144 -25.742403 -15.434377 -5.397207 1.716725 -12.704940 34.682138 13.956859 15.251281 -122.867962 87.004022 -95.257925 -61.904342 18.543770 -3.500240 
-38.075409 34.323177 25.847193 178.411604 0.517296 172.974173 -4.959455 -17.057929 4.741253 5.558949 -33.425994 -1.255461 6.621170 11.139497 -18.374214 nan nan nan 2.543904 6.898006 0.951967 0.358386 14.806464 1.984714 7.752625 -1.876441 -34.146229 nan nan nan 0.542162 3.315905 4.660665 0.165049 -1.265954 -7.122969 1.555322 0.329172 3.507966 -0.680448 3.716104 -24.611262 0.811433 -7.838109 -17.530711 1.502621 -1.848013 -10.231205 -40.286173 -19.422561 14.297138 123.044752 -84.685267 -94.642935 69.304881 -25.587326 -15.029714 -5.507806 1.808154 -12.633287 34.669008 13.466089 15.404376 -132.403042 86.843268 -104.783256 -61.733028 18.414495 -3.114249 
-38.066967 34.424652 25.417639 178.355267 0.896751 173.052090 -4.992545 -17.217707 5.090126 5.439924 -33.427253 -1.355888 6.829243 11.542480 -18.297679 nan nan nan 2.614636 7.137015 1.121222 0.376145 15.118803 2.048024 7.847205 -2.099066 -34.269781 nan nan nan 0.413822 3.327553 4.447414 0.203748 -1.115191 -7.189541 1.644497 0.411147 3.465911 -0.578286 3.642824 -24.982504 0.898046 -7.664491 -17.794297 1.367561 -1.523283 -10.215632 -39.986805 -18.928039 14.427459 131.731141 -84.557747 -103.309534 69.256163 -25.330621 -14.729216 -5.362249 1.701544 -12.674140 34.490654 13.127048 15.668411 -141.424864 86.632796 -113.772573 -61.728331 18.326287 -2.836393 
